<svg xmlns="http://www.w3.org/2000/svg" width="1080" height="1920" viewBox="0 0 1080 1920"><defs><filter id="s"><feDropShadow dy="22" stdDeviation="20" flood-opacity=".16"/></filter></defs><rect width="1080" height="1920" fill="#eef3e4"/><rect x="210" y="55" width="660" height="1810" rx="76" fill="#253c31" filter="url(#s)"/><rect x="270" y="112" width="540" height="1696" rx="45" fill="#f6f4ed"/><rect x="478" y="89" width="104" height="8" rx="4" fill="#18231d"/><g font-family="DM Sans,Segoe UI,sans-serif" fill="#18231d"><text x="315" y="260" font-size="13" fill="#7e887f" letter-spacing="2">आपका स्टॉक</text><text x="315" y="320" font-family="Georgia,serif" font-size="39">फसल लॉट बनाएं</text><text x="315" y="365" font-size="18" fill="#748078">स्पष्ट विवरण जोड़ें ताकि खरीदार आपकी उपज पर भरोसा करें।</text><text x="315" y="450" font-size="15" fill="#56635b" font-weight="700">फसल</text><rect x="315" y="470" width="450" height="58" rx="8" fill="#fff" stroke="#cbd8b2"/><text x="340" y="507" font-size="19">टमाटर</text><text x="315" y="585" font-size="15" fill="#56635b" font-weight="700">प्रजाति</text><rect x="315" y="605" width="450" height="58" rx="8" fill="#fff" stroke="#dedfd7"/><text x="340" y="642" font-size="19" fill="#748078">लोकल रेड</text><text x="315" y="720" font-size="15" fill="#56635b" font-weight="700">मात्रा (किग्रा)</text><rect x="315" y="740" width="215" height="58" rx="8" fill="#fff" stroke="#dedfd7"/><text x="340" y="777" font-size="19">500</text><text x="550" y="720" font-size="15" fill="#56635b" font-weight="700">आधार मूल्य / क्विंटल</text><rect x="550" y="740" width="215" height="58" rx="8" fill="#fff" stroke="#dedfd7"/><text x="575" y="777" font-size="19">₹3,100</text><rect x="315" y="850" width="450" height="120" rx="12" fill="#edf3df"/><text x="340" y="890" font-size="16" fill="#41613b" font-weight="700">एआई बाजार मार्गदर्शन</text><text x="340" y="925" font-size="16" fill="#56635b">समान टमाटर लॉट अच्छी बिक्री कर रहे हैं</text><text x="340" y="950" font-size="16" fill="#56635b">अभी आसपास। अंतिम मूल्य आपकी पसंद पर रहेगा।</text><rect x="315" y="1040" width="450" height="64" rx="8" fill="#2f5d50"/><text x="540" y="1081" text-anchor="middle" font-size="18" fill="#fff" font-weight="700">लॉट सेव करें</text></g></svg>