<svg xmlns="http://www.w3.org/2000/svg" width="1080" height="1920" viewBox="0 0 1080 1920"><defs><filter id="s"><feDropShadow dy="22" stdDeviation="20" flood-opacity=".16"/></filter></defs><rect width="1080" height="1920" fill="#eef3e4"/><rect x="210" y="55" width="660" height="1810" rx="76" fill="#253c31" filter="url(#s)"/><rect x="270" y="112" width="540" height="1696" rx="45" fill="#f6f4ed"/><rect x="478" y="89" width="104" height="8" rx="4" fill="#18231d"/><g font-family="DM Sans,Segoe UI,sans-serif" fill="#18231d"><text x="315" y="260" font-size="13" fill="#7e887f" letter-spacing="2">मेरी गतिविधि</text><text x="315" y="320" font-family="Georgia,serif" font-size="39">लेन-देन</text><text x="315" y="365" font-size="18" fill="#748078">आपकी मार्केटप्लेस गतिविधि का स्पष्ट रिकॉर्ड।</text><rect x="315" y="430" width="450" height="105" rx="13" fill="#2f5d50"/><text x="340" y="470" font-size="14" fill="#bcd777" font-weight="700">कुल बाजार मूल्य</text><text x="340" y="515" font-size="31" fill="#fff" font-weight="700">₹1,42,680</text><rect x="315" y="610" width="450" height="120" rx="13" fill="#fff" stroke="#dedfd7"/><circle cx="355" cy="670" r="23" fill="#dfe9c5"/><text x="355" y="678" text-anchor="middle" font-size="22">🧅</text><text x="400" y="655" font-size="19" font-weight="700">नासिक लाल प्याज</text><text x="400" y="688" font-size="16" fill="#748078">820 किग्रा · ₹20,090 · यात्रा में</text><rect x="315" y="765" width="450" height="120" rx="13" fill="#fff" stroke="#dedfd7"/><circle cx="355" cy="825" r="23" fill="#dfe9c5"/><text x="355" y="833" text-anchor="middle" font-size="22">🫘</text><text x="400" y="810" font-size="19" font-weight="700">लातूर सोयाबीन</text><text x="400" y="843" font-size="16" fill="#748078">1,240 किग्रा · ₹58,528 · पूर्ण</text><text x="315" y="1000" font-size="14" fill="#7e887f" letter-spacing="2">विश्वास और सुरक्षा</text><rect x="315" y="1040" width="450" height="120" rx="13" fill="#edf3df"/><text x="340" y="1082" font-size="18" fill="#41613b" font-weight="700">✓ हर ऑर्डर ट्रैक किया जाता है</text><text x="340" y="1120" font-size="16" fill="#56635b">एस्क्रॉ, डिलीवरी और सत्यापन</text></g></svg>